<svg width="705" height="286" viewBox="0 0 705 286" fill="none" xmlns="http://www.w3.org/2000/svg">
<path d="M627.306 80.0479C641.107 80.0479 652.794 82.3851 662.365 87.0596C672.16 91.5115 680.173 97.299 686.406 104.422C692.638 111.323 697.09 118.891 699.761 127.127C702.655 135.363 704.102 143.154 704.102 150.5V250H664.035V151.501C664.035 145.491 663.033 140.371 661.03 136.142C659.026 131.913 656.355 128.351 653.016 125.457C649.677 122.564 645.782 120.449 641.33 119.113C636.878 117.778 632.203 117.11 627.306 117.11C622.409 117.11 617.735 117.778 613.283 119.113C608.831 120.449 604.935 122.564 601.597 125.457C598.258 128.351 595.586 131.913 593.583 136.142C591.58 140.371 590.578 145.491 590.578 151.501V250H550.511V150.5C550.511 143.154 551.846 135.363 554.517 127.127C557.411 118.891 561.974 111.323 568.207 104.422C574.44 97.299 582.342 91.5115 591.914 87.0596C601.708 82.3851 613.505 80.0479 627.306 80.0479Z" fill="#013B79"/>
<path d="M444.157 80.7158C457.068 80.7158 468.866 82.8305 479.55 87.0598C490.235 91.0665 499.361 96.854 506.929 104.422C514.498 111.991 520.285 121.117 524.292 131.802C528.521 142.486 530.636 154.284 530.636 167.194V250H490.569V233.973C486.562 239.093 480.329 243.545 471.871 247.329C463.635 251.113 453.395 253.005 441.152 253.005C429.132 253.005 418.002 251.002 407.763 246.995C397.524 242.766 388.731 236.867 381.385 229.299C374.04 221.73 368.252 212.604 364.023 201.919C360.016 191.235 358.013 179.437 358.013 166.527C358.013 153.616 360.016 141.93 364.023 131.468C368.252 120.783 374.151 111.768 381.719 104.422C389.287 96.854 398.303 91.0665 408.765 87.0598C419.449 82.8305 431.247 80.7158 444.157 80.7158ZM490.569 166.861C490.569 151.279 486.339 139.147 477.881 130.466C469.645 121.785 458.515 117.444 444.491 117.444C430.468 117.444 419.227 121.785 410.768 130.466C402.309 139.147 398.08 151.279 398.08 166.861C398.08 182.442 402.309 194.574 410.768 203.255C419.227 211.936 430.468 216.277 444.491 216.277C458.515 216.277 469.645 211.936 477.881 203.255C486.339 194.574 490.569 182.442 490.569 166.861Z" fill="#013B79"/>
<path d="M0 144.293H56.758V85.3682H108.75V144.293H165.508V191.952H108.75V250.876H56.758V191.952H0V144.293Z" fill="#08E2F2"/>
<g clip-path="url(#clip0_22_41)">
<path d="M232.958 180.185C241.913 193.805 250.867 207.425 260.599 222.209C254.445 230.417 247.187 240.096 239.97 249.714C211.164 234.113 184.606 173.344 190.944 138.018H323.896C313.285 152.005 304.228 164.359 294.578 176.223C293.188 177.918 288.895 177.571 285.93 177.591C269.063 177.714 252.196 177.652 235.309 177.652C234.512 178.49 233.735 179.327 232.938 180.164L232.958 180.185Z" fill="#013B79"/>
<path d="M365.091 83.2518C356.689 94.4419 348.736 105.428 340.271 116.046C338.452 118.333 334.833 120.518 332.053 120.538C286.134 120.64 240.215 120.375 194.297 120.171C193.683 120.171 193.07 119.681 190.801 118.701C194.563 107.408 198.1 95.8304 202.393 84.5587C203.149 82.5575 206.993 80.4951 209.405 80.4951C260.762 80.781 312.099 81.3323 363.456 81.8837C363.681 81.8837 363.905 82.2512 365.071 83.2722L365.091 83.2518Z" fill="#013B79"/>
</g>
<defs>
<clipPath id="clip0_22_41">
<rect width="286" height="286" fill="white" transform="translate(190.004)"/>
</clipPath>
</defs>
</svg>
